<svg xmlns="http://www.w3.org/2000/svg" viewBox="0 0 512 512"><g fill="#00B9F1"><path d="M68.8 97.3C56.7 247.8 149.1 296 149.1 296c-35.2 14.3-85.2-17.4-104-73.5C15 132 71.9 59.4 68.8 97.3zM235.9 11.5c-115 97.8-83.7 197.4-83.7 197.4-35-14.8-47.9-72.6-21.5-125.5C173.2-2 264.8-13.1 235.9 11.5zM276.1 500.5c115.1-97.9 83.7-197.3 83.7-197.3 35 14.8 47.9 72.6 21.5 125.5-42.5 85.3-134.1 96.4-105.2 71.8zM500.5 235.9c-97.8-115.1-197.4-83.7-197.4-83.7 14.8-35 72.6-47.9 125.6-21.5 85.3 42.5 96.4 134.1 71.8 105.2zM11.5 276.1c97.9 115.1 197.4 83.7 197.4 83.7-14.8 35-72.6 47.9-125.6 21.5C-2 338.8-13.1 247.2 11.5 276.1zM414.7 68.8C264.2 56.7 216 149.2 216 149.2c-14.2-35.3 17.4-85.2 73.6-104C379.9 15 452.5 71.9 414.7 68.8zM97.3 443.1C247.9 455.3 296 362.7 296 362.7c14.3 35.3-17.4 85.2-73.6 104-90.3 30.2-163-26.6-125.1-23.6zM443.2 414.7C455.4 264.1 362.8 216 362.8 216c35.2-14.3 85.2 17.4 104 73.6 30.2 90.3-26.7 162.9-23.6 125.1z"/></g><path fill="#0091D6" d="M11.5 235.8c97.9-115 197.4-83.7 197.4-83.7-14.8-35-72.6-47.9-125.6-21.5C-2 173.2-13.1 264.8 11.5 235.8zM68.8 414.7C56.7 264.1 149.2 216 149.2 216c-35.2-14.3-85.2 17.4-104 73.6C15 379.9 71.9 452.5 68.8 414.7zM414.7 443.1C264.2 455.3 216 362.7 216 362.7c-14.2 35.2 17.4 85.2 73.6 104 90.3 30.2 162.9-26.6 125.1-23.6zM97.3 68.8C247.8 56.7 296 149.2 296 149.2c14.3-35.3-17.4-85.2-73.6-104C132.1 15 59.4 71.9 97.3 68.8zM235.8 500.5c-115-97.9-83.7-197.3-83.7-197.3-35 14.8-47.9 72.6-21.5 125.5 42.6 85.3 134.2 96.4 105.2 71.8zM500.5 276.2c-97.8 115-197.4 83.7-197.4 83.7 14.8 35 72.6 47.9 125.6 21.5 85.3-42.6 96.4-134.2 71.8-105.2zM443.2 97.3C455.4 247.8 362.8 296 362.8 296c35.2 14.3 85.2-17.4 104-73.5C497 132 440.1 59.4 443.2 97.3zM276.1 11.5c115.1 97.8 83.7 197.4 83.7 197.4 35-14.8 47.9-72.6 21.5-125.5C338.8-2 247.2-13.1 276.1 11.5z"/></svg>